<?xml version="1.0" standalone="no"?>
<!DOCTYPE svg PUBLIC "-//W3C//DTD SVG 20010904//EN"
 "http://www.w3.org/TR/2001/REC-SVG-20010904/DTD/svg10.dtd">
<svg version="1.0" xmlns="http://www.w3.org/2000/svg"
 width="700.000000pt" height="700.000000pt" viewBox="0 0 700.000000 700.000000"
 preserveAspectRatio="xMidYMid meet">
<metadata>
Created by potrace 1.11, written by Peter Selinger 2001-2013
</metadata>
<g transform="translate(0.000000,700.000000) scale(0.100000,-0.100000)"
fill="#000000" stroke="none">
<path d="M3258 6625 c-2 -1 -50 -6 -108 -10 -58 -4 -107 -8 -110 -10 -3 -1
-32 -6 -65 -9 -33 -4 -71 -9 -85 -11 -14 -3 -38 -7 -55 -10 -30 -5 -38 -6
-135 -26 -471 -94 -944 -299 -1335 -578 -672 -480 -1090 -1172 -1151 -1906 -6
-79 -16 -105 -38 -105 -27 0 -104 -82 -137 -146 l-34 -68 1 -181 c0 -159 9
-351 18 -402 2 -10 7 -49 11 -88 4 -38 8 -77 10 -85 1 -8 5 -36 9 -61 27 -188
111 -568 151 -684 8 -22 27 -83 43 -135 123 -397 342 -871 590 -1275 68 -111
102 -156 165 -218 91 -88 184 -148 302 -193 151 -56 34 -53 2190 -53 2153 0
2050 -3 2200 54 177 66 318 181 429 350 171 258 396 706 520 1031 55 145 59
166 40 212 -35 89 -147 112 -219 46 -12 -11 -57 -109 -100 -219 -142 -357
-423 -885 -539 -1012 -80 -89 -206 -160 -316 -179 -52 -9 -3947 -12 -4000 -2
-127 21 -228 74 -320 167 -120 122 -405 644 -545 1001 -31 80 -61 154 -66 165
-53 125 -175 554 -214 750 -19 95 -50 299 -61 390 -3 33 -8 67 -9 77 -7 35
-19 268 -19 376 -1 108 0 115 23 133 45 37 114 18 216 -58 107 -81 225 -127
353 -138 118 -11 206 16 386 117 71 40 190 35 291 -13 38 -18 115 -81 265
-217 41 -37 151 -90 235 -113 65 -18 97 -21 180 -17 125 6 186 27 302 104 135
90 173 105 251 105 118 -1 161 -19 300 -128 158 -123 233 -153 417 -167 74 -6
246 37 286 71 8 7 20 13 25 13 5 0 54 36 109 80 117 92 149 110 230 125 116
21 178 2 339 -108 107 -72 171 -91 316 -92 123 0 154 5 245 43 70 28 137 76
245 175 140 128 206 161 337 166 55 2 67 -2 175 -58 147 -77 217 -96 320 -87
135 11 251 55 365 140 105 77 169 94 214 57 23 -19 24 -24 23 -153 -1 -122 -9
-259 -19 -348 -11 -88 22 -151 91 -175 85 -29 162 24 178 123 11 68 20 242 20
402 1 159 -1 180 -21 230 -26 63 -79 126 -140 165 -35 23 -43 34 -44 59 -1 48
-17 197 -24 226 -1 3 -5 25 -9 50 -83 479 -338 952 -721 1336 -268 269 -501
438 -840 609 -335 169 -610 261 -1022 339 -70 14 -198 30 -368 46 -80 7 -539
12 -547 5z m537 -279 c28 -3 77 -8 110 -11 51 -5 248 -36 310 -49 854 -178
1555 -632 1960 -1267 115 -179 245 -474 279 -630 37 -167 55 -282 60 -374 2
-27 -3 -32 -54 -56 -30 -14 -89 -51 -131 -81 -89 -64 -159 -90 -242 -89 -53 0
-70 6 -151 51 -119 67 -191 91 -280 93 -214 4 -363 -60 -551 -238 -98 -93
-144 -123 -217 -140 -119 -28 -172 -15 -297 71 -140 96 -248 132 -386 128
-192 -5 -278 -42 -476 -203 -30 -24 -74 -53 -99 -64 -55 -25 -163 -31 -225
-13 -39 12 -151 83 -187 119 -7 7 -40 32 -73 54 -99 68 -204 102 -333 107
-146 6 -246 -24 -375 -111 -137 -92 -152 -98 -242 -97 -111 0 -164 27 -298
147 -58 52 -127 110 -153 128 -62 43 -167 85 -246 99 -164 30 -255 15 -415
-71 -94 -50 -124 -61 -162 -61 -99 1 -162 24 -266 101 -38 28 -93 61 -122 73
-51 21 -52 22 -48 60 2 21 7 64 10 95 25 257 145 602 298 853 93 153 279 388
387 488 14 13 48 45 75 71 28 26 88 78 135 115 47 37 92 74 102 81 91 73 363
235 508 302 196 91 442 179 625 223 50 12 99 24 110 26 102 25 348 60 495 70
52 4 96 8 98 9 5 5 418 -3 467 -9z"/>
<path d="M3348 5565 c-195 -68 -318 -235 -323 -440 -6 -185 96 -355 260 -436
191 -94 402 -61 550 87 113 112 163 272 134 431 -21 112 -114 248 -214 311
-115 73 -279 92 -407 47z m253 -276 c145 -80 131 -299 -23 -364 -135 -56 -283
46 -280 193 3 154 167 246 303 171z"/>
<path d="M5348 5114 c-2 -1 -25 -4 -53 -5 -180 -11 -352 -156 -411 -348 -17
-55 -16 -197 2 -256 39 -131 135 -243 256 -300 85 -40 109 -45 203 -45 134 0
238 43 335 140 61 60 115 148 126 203 2 10 6 27 9 38 11 34 8 162 -5 208 -41
153 -158 284 -300 335 -42 15 -156 36 -162 30z m89 -298 c94 -48 135 -155 99
-254 -14 -39 -70 -100 -106 -114 -76 -31 -175 -13 -227 41 -103 107 -70 275
67 335 41 18 125 14 167 -8z"/>
<path d="M1695 5089 c-136 -49 -241 -149 -294 -279 -31 -76 -40 -224 -17 -299
41 -139 135 -248 263 -308 78 -36 127 -46 213 -44 416 9 617 519 321 811 -103
102 -204 142 -351 138 -53 -1 -104 -8 -135 -19z m244 -273 c94 -49 135 -166
92 -262 -74 -163 -298 -163 -372 0 -62 136 50 295 197 282 29 -2 66 -11 83
-20z"/>
<path d="M988 3061 c-74 -37 -95 -113 -57 -211 10 -25 48 -130 84 -235 37
-104 79 -226 95 -270 16 -44 74 -210 130 -370 196 -561 202 -576 221 -618 28
-62 133 -90 187 -50 77 57 81 104 25 263 -23 63 -60 169 -83 235 -23 66 -68
194 -100 285 -32 91 -82 233 -110 315 -28 83 -56 159 -60 170 -5 11 -41 112
-81 225 -68 194 -90 239 -132 261 -31 17 -85 17 -119 0z"/>
<path d="M5886 3057 c-50 -29 -27 27 -281 -697 -58 -168 -119 -341 -135 -385
-128 -359 -183 -525 -183 -551 -1 -105 107 -169 201 -120 48 25 30 -20 302
756 38 107 94 267 125 355 31 88 74 210 95 270 21 61 48 137 60 170 32 90 17
161 -44 200 -37 24 -99 25 -140 2z"/>
<path d="M2199 2844 c-40 -16 -79 -75 -79 -117 0 -22 39 -203 151 -712 11 -49
23 -101 25 -115 3 -14 26 -117 51 -230 52 -238 47 -216 57 -260 18 -80 66
-122 139 -122 98 0 149 82 124 201 -39 180 -139 635 -147 666 -5 22 -37 168
-71 325 -63 293 -79 338 -127 360 -41 18 -86 20 -123 4z"/>
<path d="M4683 2839 c-25 -12 -47 -33 -57 -52 -13 -28 -42 -149 -102 -431 -9
-39 -17 -78 -19 -86 -2 -8 -17 -78 -34 -155 -16 -77 -39 -178 -50 -225 -11
-47 -22 -97 -25 -110 -2 -14 -19 -90 -37 -170 -37 -169 -41 -224 -14 -263 51
-79 182 -78 227 2 16 27 30 85 97 391 22 102 70 320 107 485 36 165 68 309 70
320 2 11 11 53 20 93 9 41 13 87 10 106 -17 92 -109 137 -193 95z"/>
<path d="M3465 2743 c-34 -9 -82 -51 -92 -80 -6 -17 -9 -290 -9 -678 1 -716
-2 -675 64 -717 70 -43 161 -17 192 55 17 39 18 86 16 687 -1 599 -2 648 -19
673 -31 47 -98 74 -152 60z"/>
<path d="M6694 2684 c-97 -33 -125 -143 -57 -221 58 -66 173 -51 215 28 59
109 -42 233 -158 193z"/>
</g>
</svg>
